# xmcd
#
# Track frame offsets: 
#        150
#        20514
#        42643
#        62514
#        66498
#        79792
#        106919
#        129808
#        157040
#        176191
#        196072
#
# Disc length: 3110 seconds
#
# Revision: 0
# Processed by: cddbd v1.5.2PL0 Copyright (c) Steve Scherf et al.
# Submitted via: ExactAudioCopy v0.99pb3
#
DISCID=930c240b
DTITLE=Diablo Swing Orchestra - Pandora's Pinata
DYEAR=2012
DGENRE=Swing Metal
TTITLE0=Voodoo Mon Amour
TTITLE1=Guerrilla Laments
TTITLE2=Kevlar Sweethearts
TTITLE3=How To Organize A Lynch Mob
TTITLE4=Black Box Messiah
TTITLE5=Exit Strategy of A Wrecking Ball
TTITLE6=Aurora
TTITLE7=Mass Rapture
TTITLE8=Honey Trap Aftermath
TTITLE9=Of Kau Ma Calibre
TTITLE10=Justice For Saint Mary
EXTD=
EXTT0=
EXTT1=
EXTT2=
EXTT3=
EXTT4=
EXTT5=
EXTT6=
EXTT7=
EXTT8=
EXTT9=
EXTT10=
PLAYORDER=
